<svg xmlns="http://www.w3.org/2000/svg" viewBox="0 0 512 512">
  <defs>
    <linearGradient id="bg" x1="0" y1="0" x2="1" y2="1">
      <stop offset="0%" stop-color="#06070c"/>
      <stop offset="55%" stop-color="#11162a"/>
      <stop offset="100%" stop-color="#04050a"/>
    </linearGradient>
    <radialGradient id="glow" cx="50%" cy="45%" r="50%">
      <stop offset="0%" stop-color="#ffffff" stop-opacity="0.95"/>
      <stop offset="24%" stop-color="#00f0ff" stop-opacity="0.9"/>
      <stop offset="58%" stop-color="#b374ff" stop-opacity="0.65"/>
      <stop offset="100%" stop-color="#04050a" stop-opacity="0"/>
    </radialGradient>
  </defs>
  <rect width="512" height="512" rx="112" fill="url(#bg)"/>
  <circle cx="256" cy="220" r="158" fill="url(#glow)"/>
  <circle cx="256" cy="220" r="112" fill="none" stroke="#00f0ff" stroke-opacity="0.42" stroke-width="10"/>
  <circle cx="256" cy="220" r="72" fill="none" stroke="#b374ff" stroke-opacity="0.72" stroke-width="12"/>
  <path d="M126 330c48-30 88-44 130-44s82 14 130 44" fill="none" stroke="#fbbf24" stroke-width="18" stroke-linecap="round"/>
  <path d="M146 360c38 26 75 38 110 38s72-12 110-38" fill="none" stroke="#3de8a8" stroke-width="12" stroke-linecap="round"/>
  <circle cx="256" cy="220" r="18" fill="#ffffff"/>
  <path d="M170 170l34 0M308 170l34 0M256 120l0 34M256 206l0 34" stroke="#ffffff" stroke-opacity="0.68" stroke-width="8" stroke-linecap="round"/>
</svg>
